<?xml version="1.0" standalone="no"?>
<!DOCTYPE svg PUBLIC "-//W3C//DTD SVG 20010904//EN"
 "http://www.w3.org/TR/2001/REC-SVG-20010904/DTD/svg10.dtd">
<svg version="1.0" xmlns="http://www.w3.org/2000/svg"
 width="262.000000pt" height="147.000000pt" viewBox="0 0 262.000000 147.000000"
 preserveAspectRatio="xMidYMid meet">
<metadata>
Created by potrace 1.16, written by Peter Selinger 2001-2019
</metadata>
<g transform="translate(0.000000,147.000000) scale(0.100000,-0.100000)"
fill="#000000" stroke="none">
<path d="M218 963 c-2 -5 -1 -117 2 -250 l5 -243 27 -27 c23 -23 38 -28 93
-31 l65 -4 0 69 c0 38 -3 73 -6 76 -4 3 -15 2 -26 -4 -37 -20 -41 -3 -5 20
l37 23 0 143 c0 164 -7 188 -62 216 -36 19 -124 26 -130 12z"/>
<path d="M1168 914 c-12 -25 -12 -25 -20 -5 -9 26 -38 28 -38 3 0 -33 32 -112
45 -112 7 0 18 7 26 16 11 14 13 14 21 0 13 -23 35 -20 43 7 5 17 8 18 12 7
16 -40 69 -41 84 -3 15 40 -3 73 -40 73 -21 0 -30 6 -35 23 l-6 22 -20 -24
c-16 -19 -21 -20 -26 -8 -10 28 -34 28 -46 1z"/>
<path d="M1523 932 c-13 -2 -23 -10 -23 -18 0 -8 -7 -14 -15 -14 -8 0 -15 -5
-15 -10 0 -6 -8 -5 -20 2 -17 11 -22 10 -30 -2 -6 -10 -10 -11 -10 -2 0 6 -7
12 -15 12 -18 0 -19 -25 -4 -67 9 -27 15 -30 50 -30 34 0 40 3 46 26 l7 26 6
-25 c5 -22 11 -25 57 -27 l51 -2 4 47 c6 76 1 90 -35 89 -18 0 -42 -2 -54 -5z"/>
<path d="M1660 870 c0 -56 3 -70 15 -70 10 0 15 10 15 30 0 38 18 40 22 3 3
-28 3 -28 81 -28 67 0 77 -2 77 -17 0 -21 26 -24 37 -4 4 8 17 15 28 17 11 3
24 17 29 32 15 40 -2 61 -51 65 -31 2 -42 8 -46 24 -7 25 -31 19 -35 -8 -2
-17 -9 -20 -34 -16 -22 3 -35 0 -45 -14 -12 -16 -13 -16 -13 -1 0 11 -8 17
-25 17 -18 0 -25 5 -25 20 0 11 -7 20 -15 20 -12 0 -15 -14 -15 -70z"/>
<path d="M2005 868 c4 -18 7 -40 6 -48 0 -8 -3 -54 -7 -102 l-7 -88 32 0 c18
0 41 5 51 10 11 6 21 6 25 1 7 -12 116 -11 132 1 7 5 14 5 18 -2 3 -5 15 -10
26 -10 22 0 27 35 7 44 -10 5 -10 7 0 12 14 7 16 44 2 44 -5 0 -10 7 -10 15 0
20 -20 19 -34 -1 -9 -11 -29 -16 -71 -16 -33 0 -65 -5 -72 -10 -7 -6 -14 -5
-18 2 -3 5 -16 10 -28 10 -16 0 -23 6 -23 20 0 11 3 20 7 20 3 0 12 18 19 40
13 38 14 39 24 17 13 -24 52 -35 69 -18 7 7 14 7 23 0 7 -6 28 -9 46 -7 32 3
33 5 36 51 3 42 1 47 -17 47 -17 0 -21 -6 -21 -31 0 -16 -4 -28 -9 -25 -5 3
-7 15 -4 26 6 24 -25 40 -38 19 -6 -10 -9 -10 -9 -1 0 8 -18 12 -55 12 -46 0
-55 -3 -55 -17 -1 -17 -1 -17 -14 0 -23 29 -39 21 -31 -15z"/>
<path d="M1170 750 c0 -14 -7 -20 -24 -20 -35 0 -52 -64 -23 -88 16 -14 167
-14 183 -1 8 7 14 7 19 -1 8 -13 52 -13 61 1 4 8 9 8 17 0 18 -18 55 -13 70
10 l15 21 7 -21 c8 -27 35 -27 42 -1 l6 21 14 -21 c16 -22 52 -27 71 -8 9 9
12 9 12 0 0 -7 7 -12 15 -12 9 0 15 9 15 25 0 14 7 28 15 31 8 4 15 14 15 24
0 16 -9 18 -86 18 -67 -1 -87 -4 -92 -16 -4 -12 -7 -10 -14 7 -6 17 -13 21
-30 16 -11 -4 -52 -7 -90 -7 -46 1 -68 -3 -68 -11 0 -8 -3 -7 -9 2 -6 9 -20
12 -39 9 -25 -4 -32 -1 -34 15 -2 14 -12 21 -35 23 -27 3 -33 0 -33 -16z"/>
<path d="M1785 760 c-3 -5 -3 -14 0 -20 3 -5 2 -10 -3 -10 -6 0 -12 7 -16 15
-17 46 -47 -10 -37 -70 6 -39 7 -40 49 -42 40 -2 42 -1 42 28 0 16 5 29 10 29
6 0 10 -13 10 -29 0 -28 1 -28 53 -26 28 1 56 3 60 4 5 0 7 20 5 44 -3 38 -6
42 -31 45 -16 2 -34 -2 -42 -8 -9 -7 -15 -8 -20 0 -3 5 -15 10 -26 10 -12 0
-19 7 -19 20 0 21 -24 28 -35 10z"/>
<path d="M450 653 c0 -57 1 -58 43 -86 l42 -28 -42 6 -43 7 0 -99 c0 -81 4
-104 20 -131 25 -40 74 -63 132 -59 l43 2 3 188 2 189 -34 34 c-32 32 -38 34
-100 34 l-66 0 0 -57z"/>
<path d="M1207 593 c-4 -3 -7 -13 -7 -22 0 -13 -9 -15 -45 -13 l-45 4 0 -60
c0 -65 14 -87 37 -56 10 13 25 18 53 18 22 -1 40 3 40 8 0 5 9 4 19 -2 11 -5
31 -10 45 -10 14 0 26 5 26 10 0 7 6 7 18 2 14 -7 157 -9 210 -3 9 1 12 14 10
44 -3 35 -7 43 -26 45 -13 2 -30 -2 -38 -8 -10 -9 -14 -9 -14 -1 0 7 -39 10
-125 8 -124 -2 -125 -2 -125 21 0 21 -19 30 -33 15z"/>
<path d="M1870 574 c0 -10 -6 -14 -14 -11 -9 4 -18 -2 -22 -15 -6 -19 -7 -19
-16 -5 -9 17 -38 24 -38 10 1 -26 31 -89 43 -91 9 -2 22 9 31 25 l15 28 1 -26
c0 -26 1 -27 65 -25 43 1 69 6 74 14 7 11 9 11 14 -2 4 -9 13 -16 22 -16 21 0
31 30 14 42 -11 7 -11 11 -1 15 14 6 16 43 2 43 -5 0 -10 6 -10 14 0 19 -76
20 -84 0 -7 -18 -40 -18 -56 1 -16 20 -40 19 -40 -1z"/>
</g>
</svg>
